<svg width="128" height="37" viewBox="0 0 128 37" fill="none" xmlns="http://www.w3.org/2000/svg">
<g clip-path="url(#clip0_1_12)">
<path d="M30.1769 28.1846C30.1769 28.1846 20.8224 7.89931 18.3972 2.58113C17.8948 1.47246 16.9767 0 14.9153 0C12.9404 0 12.0396 1.42049 11.468 2.65043C9.40652 7.11977 1.78438 22.468 0.58909 25.0665C-0.363678 27.1279 -0.155801 28.635 1.26469 29.7956C1.92296 30.3327 2.61589 30.5925 3.36078 30.5925C4.20961 30.5925 5.1104 30.246 6.04585 29.5358C6.912 28.8775 8.90415 26.9893 9.7703 26.3137C11.4333 25.0318 13.1483 23.7153 14.8979 22.52C16.3704 21.5152 17.1499 21.2034 18.2586 20.9089C18.4318 20.8569 21.0303 20.216 23.0398 21.8963C24.7201 23.2822 26.2792 28.1846 26.2792 28.1846H30.1769ZM18.7956 17.427C18.7956 17.427 15.5389 17.479 11.5546 20.6491C10.1341 21.7751 3.34345 27.1799 3.30881 27.1625C3.23952 27.1279 15.0538 3.3087 15.0538 3.3087C15.0538 3.3087 19.3153 12.9057 21.5673 17.8254C20.7011 17.5829 19.6791 17.4097 18.7956 17.427Z" fill="#FF5F1F"/>
<path d="M55.8841 1.48978C54.6542 1.48978 53.7361 2.4079 53.7361 3.63784C53.7361 4.86777 54.6542 5.78589 55.8841 5.78589C57.1141 5.78589 58.0322 4.86777 58.0322 3.63784C58.0322 2.4079 57.1141 1.48978 55.8841 1.48978Z" fill="#FF5F1F"/>
<path d="M55.8495 8.73081C54.914 8.73081 54.1518 9.49303 54.1518 10.4285V28.2885H57.5298V10.4285C57.5298 9.49303 56.7676 8.73081 55.8322 8.73081H55.8495Z" fill="#FF5F1F"/>
<path d="M63.3331 1.55908C62.3977 1.55908 61.6354 2.32129 61.6354 3.25674V28.2885H65.0134V3.25674C65.0134 2.32129 64.2512 1.55908 63.3158 1.55908H63.3331Z" fill="#FF5F1F"/>
<path d="M77.5553 8.50562C72.0119 8.50562 68.2701 12.5246 68.2701 18.501C68.2701 24.4775 72.1678 28.4964 77.971 28.4964C81.4703 28.4964 84.3979 26.7468 85.8011 23.8019C86.0436 23.2995 86.0089 22.7278 85.7145 22.2601C85.42 21.7924 84.9349 21.5326 84.3806 21.5326H84.2247C83.601 21.5326 83.0294 21.9137 82.7695 22.5026C81.9207 24.3909 80.0845 25.4649 77.7285 25.4649C74.2293 25.4649 71.908 23.0743 71.7867 19.3845V19.2632H86.7365V19.1246C86.7712 18.6742 86.8058 18.2239 86.8058 17.7908C86.6499 12.0742 83.0987 8.50562 77.5206 8.50562H77.5553ZM72.0119 16.4049C72.3584 13.5986 74.7316 11.5198 77.5899 11.5198C80.7774 11.5198 82.8735 13.3388 83.2026 16.4049H71.9946H72.0119Z" fill="#FF5F1F"/>
<path d="M120.083 8.50562C116.809 8.50562 114.886 9.89146 113.83 11.1387L113.657 10.0647C113.535 9.28516 112.877 8.73082 112.08 8.73082C111.197 8.73082 110.486 9.44106 110.486 10.3245V28.2712H113.864V18.501C113.864 14.1876 115.978 11.6238 119.529 11.6238C122.838 11.6238 124.605 13.6852 124.605 17.6002V28.2712H127.983V17.4097C127.983 9.66626 123.011 8.50562 120.066 8.50562H120.083Z" fill="#FF5F1F"/>
<path d="M48.6431 9.56232C47.8463 9.56232 47.188 10.1513 47.0841 10.9308L46.8762 12.5939C45.525 10.4631 43.273 9.33712 40.3627 9.33712C34.8367 9.33712 30.9736 13.4427 30.9736 19.3325C30.9736 25.2224 34.6634 29.3279 40.3627 29.3279C43.2383 29.3279 45.4037 28.2539 46.8242 26.1232V27.8901C46.8242 31.8917 44.8321 33.8319 40.7438 33.8319C37.591 33.8319 35.495 32.498 34.9926 30.1594V30.0555H31.2162V30.2114C31.7185 34.317 35.2697 36.8634 40.5186 36.8634C46.9455 36.8634 50.2195 33.8839 50.2195 27.994V11.1387C50.2195 10.2726 49.5093 9.57964 48.6605 9.57964L48.6431 9.56232ZM46.8589 19.4191C46.8589 23.4727 44.3124 26.2964 40.6572 26.2964C37.0021 26.2964 34.4209 23.5074 34.4209 19.3325C34.4209 15.1577 36.9328 12.3687 40.6572 12.3687C44.3817 12.3687 46.8589 15.2616 46.8589 19.4018V19.4191Z" fill="#FF5F1F"/>
<path d="M106.329 25.257C105.619 25.257 105.289 25.1011 105.289 24.183V16.3183C105.289 15.6774 105.289 15.0364 105.272 14.3781C105.238 12.5072 104.683 10.8789 102.986 9.7702C100.266 7.98592 94.5665 7.89931 91.5003 10.9135C91.1539 11.26 90.8421 11.6411 90.4956 12.0222C90.2358 12.282 90.0625 12.6458 90.0625 13.0443C90.0625 13.8411 90.7035 14.4821 91.5003 14.4821C91.9334 14.4821 92.3318 14.2915 92.5917 13.9797C92.6263 13.9451 92.9208 13.5639 92.9208 13.5639C94.861 11.0694 98.1004 10.9308 100.352 11.6064C101.496 11.9529 102.154 12.7498 102.206 13.7199C102.275 14.9844 101.79 15.8679 100.578 16.301C99.7461 16.5955 98.8453 16.7341 97.9445 16.8034C96.2815 16.9419 94.6185 16.9246 93.0248 17.6002C92.1066 17.9813 91.3444 18.501 90.7901 19.142C89.8893 20.0947 89.4216 21.3766 89.4216 22.953C89.4216 26.2791 92.1066 28.4098 96.2815 28.4098C98.88 28.4098 100.855 27.4917 102.275 25.6208C102.431 27.4051 103.505 28.2019 105.671 28.2019H107.42V25.257H106.364H106.329Z" fill="#FF5F1F"/>
</g>
<defs>
<clipPath id="clip0_1_12">
<rect width="128" height="36.8981" fill="white"/>
</clipPath>
</defs>
</svg>
