<svg width="32" height="32" viewBox="0 0 31 31" fill="none" xmlns="http://www.w3.org/2000/svg">
  <path d="M30.1769 28.1846C30.1769 28.1846 20.8224 7.89931 18.3972 2.58113C17.8948 1.47246 16.9767 0 14.9153 0C12.9404 0 12.0396 1.42049 11.468 2.65043C9.40652 7.11977 1.78438 22.468 0.58909 25.0665C-0.363678 27.1279 -0.155801 28.635 1.26469 29.7956C1.92296 30.3327 2.61589 30.5925 3.36078 30.5925C4.20961 30.5925 5.1104 30.246 6.04585 29.5358C6.912 28.8775 8.90415 26.9893 9.7703 26.3137C11.4333 25.0318 13.1483 23.7153 14.8979 22.52C16.3704 21.5152 17.1499 21.2034 18.2586 20.9089C18.4318 20.8569 21.0303 20.216 23.0398 21.8963C24.7201 23.2822 26.2792 28.1846 26.2792 28.1846H30.1769ZM18.7956 17.427C18.7956 17.427 15.5389 17.479 11.5546 20.6491C10.1341 21.7751 3.34345 27.1799 3.30881 27.1625C3.23952 27.1279 15.0538 3.3087 15.0538 3.3087C15.0538 3.3087 19.3153 12.9057 21.5673 17.8254C20.7011 17.5829 19.6791 17.4097 18.7956 17.427Z" fill="#FF5F1F"/>
</svg>
